<?xml version="1.0" encoding="UTF-8"?><svg id="Layer_2" xmlns="http://www.w3.org/2000/svg" viewBox="0 0 313.22 205.71"><defs><style>.cls-1{fill:#ff3337;}</style></defs><g id="Layer_1-2"><g><path class="cls-1" d="M313.22,7.59c-2.15,2.34-4,4.42-5.93,6.43-2.34,2.42-4.72,4.8-7.14,7.14-1.33,1.28-2.79,2.43-4.16,3.66-1.06,.95-2.14,1.9-3.09,2.95-2.21,2.45-4.33,5-7.26,6.62-1.73,.96-2.71,2.6-4.06,3.91-1.27,1.23-2.67,2.32-4.02,3.47-.11,.09-.27,.14-.42,.17-1.93,.34-3.86,.71-5.79,1.01-2.65,.42-5.29,.86-7.96,1.17-1.84,.22-3.7,.24-5.55,.36-1.74,.12-3.47,.24-5.21,.38-.7,.06-1.19-.08-1.61-.75-.25-.4-.85-.74-1.34-.82-1.79-.29-3.6-.47-5.4-.64-.32-.03-.71,.18-1,.38-.5,.33-.9,.83-1.43,1.08-2.69,1.27-5.5,.63-8.27,.39-.39-.03-.75-.31-1.13-.47-1.01-.41-2-.9-3.05-1.17-.45-.12-1.03,.19-1.54,.34-.69,.21-1.36,.56-2.07,.67-1.15,.19-2.32,.28-3.49,.32-.34,.01-.73-.21-1.02-.43-.26-.19-.44-.51-.62-.8-.88-1.43-1.92-2.37-3.79-1.65-.45,.17-1.09-.23-1.64-.25-2.18-.06-3.91,1.07-5.53,2.31-2.25,1.72-4.09,3.82-5.34,6.39-.3,.62-.53,1.35-.53,2.03,.02,3.33,.26,6.67,.15,10-.09,2.54,1.24,4.35,2.71,6.01,1.13,1.27,2.72,2.15,4.16,3.12,.39,.26,1,.34,1.49,.29,2.33-.27,4.64-.76,7-.31,.52,.1,1.04,.22,1.56,.26,1.72,.13,3.46,.43,5.16,.28,2.7-.25,5.36-.16,8.03,.22,2.59,.36,5.17,.58,7.78-.09,1.13-.29,2.4-.22,3.59-.11,1.58,.15,3.13,.52,4.7,.75,.52,.08,1.09,.15,1.58,.02,3.35-.9,6.52,.14,9.74,.78,.81,.16,1.72,.12,2.51-.09,1.35-.35,2.63-.57,4.01-.14,.67,.21,1.42,.15,2.13,.21,.79,.06,1.61-.01,2.36,.2,2.93,.81,3.73,2.86,2.13,5.43-.64,1.02-1.57,1.86-2.15,2.9-.83,1.51-1.54,3.1-2.16,4.71-.35,.91-.66,1.7-1.67,2.09-.73,.28-1.42,.73-2.05,1.21-.75,.58-1.26,.52-1.67-.35-.07-.15-.25-.24-.64-.6-.69,2.78-3.05,3.83-4.79,5.51-.9,.87-1.33,2.21-2.16,3.18-.74,.87-1.65,1.65-2.62,2.27-1.74,1.11-3.43,2.19-4.22,4.26-.66,1.73-2.27,2.6-3.68,3.59-1.11,.78-2.02,1.57-2.46,2.97-.25,.79-.96,1.7-1.69,2.02-2.06,.89-4.2,1.75-6.4,2.15-1.53,.28-3.21-.33-4.82-.35-1.42-.02-2.84,.3-4.26,.35-1.22,.04-2.5,.11-3.66-.19-1.98-.52-3.9-.66-5.94-.33-1.27,.2-2.7,.2-3.91-.17-2.49-.78-4.47-.24-6.07,1.69-1.18,1.42-2.26,2.92-3.33,4.43-.21,.3-.39,.94-.23,1.15,.84,1.12,.54,2.39,.68,3.61,.27,2.29,.64,4.56,.87,6.85,.18,1.84,.3,3.69,.31,5.54,.01,2.02,.29,3.93,1.05,5.85,1.32,3.32,1.68,6.74-.47,9.9-1.49,2.18-1.36,4.35-.28,6.55,.62,1.25,.39,2.3-.01,3.56-.82,2.57-2.61,4.32-4.55,5.94-3.65,3.04-6.76,6.6-10.05,9.99-5.12,5.27-8.96,11.53-13.8,16.99-.44,.49-.96,1.02-1.55,1.26-4.06,1.61-7.7,3.85-10.82,6.93-.13,.12-.29,.21-.56,.39-.04-.36-.1-.6-.09-.83,.05-1.03,0-1.96-.73-2.86-.73-.91-.84-2.07-.46-3.25,.14-.43,.15-.97,.04-1.41-.68-2.74-.57-5.38,.67-7.98,.36-.76,.55-1.66,.57-2.51,.1-5.49,.22-10.98,.14-16.47-.02-1.66-.57-3.33-1.04-4.96-.88-3.06-.68-5.96,.73-8.83,.35-.72,.5-1.59,.52-2.4,.1-3.37,.12-6.74,.16-10.11,0-.42,.03-.85-.07-1.24-.55-2.21-.4-4.35,.01-6.61,.28-1.5-.27-3.21-.67-4.77-.61-2.39-.42-4.69,.09-7.06,.47-2.21,.8-4.47,.91-6.72,.18-3.55,.17-7.12,.14-10.68-.02-2,0-4.04-.4-5.98-.51-2.47-.05-4.81,.27-7.21,.13-.97,.3-1.95,.31-2.93,.09-6.89,.21-13.79,.18-20.68,0-2.14-.48-4.28-.68-6.42-.3-3.39-.79-6.78-.73-10.17,.04-2.29,.91-4.57,1.4-6.85,.13-.59,.27-1.19,.28-1.78,.11-6.93,.28-13.86,.22-20.79-.02-2.24-.83-4.46-1.02-6.72-.15-1.78,.08-3.6,.17-5.4,.06-1.31,.32-2.64,.21-3.94-.32-3.65,.5-5.11,3.9-6.31,2.07-.73,4.19-.71,6.38-.44,2.8,.35,5.64,.47,8.47,.56,3.75,.11,7.49,.12,11.24,.12,.9,0,1.79-.23,2.7-.29,1.69-.1,3.38-.18,5.07-.2,.9,0,1.81,.13,2.72,.21,2.9,.24,5.79,.58,8.7,.7,1.65,.07,3.31-.24,4.96-.35,1.39-.09,2.8-.28,4.18-.16,4.94,.43,9.86,1.04,14.8,1.44,1.64,.13,3.33-.05,4.97-.3,5-.74,9.97-.21,14.96,.04,2.79,.14,5.58,.11,8.37,.17,.87,.02,1.74,.11,2.6,.18,5.39,.45,10.79,.85,16.17,1.39,3.8,.38,7.58,.97,11.37,1.47,3.86,.51,7.73,1.02,11.58,1.58,1.25,.18,2.49,.51,4.05,.85Zm-52.24,30.42c.62,.09,.9,.17,1.19,.17,2.92,.03,5.83,.01,8.75,.08,3.17,.07,5.76-1.38,7.87-3.46,6.42-6.32,12.7-12.79,19.03-19.21,1.84-1.86,3.73-3.67,5.46-5.62,.6-.67,.78-1.72,1.15-2.59-.77-.2-1.54-.55-2.31-.57-21.43-.36-42.87-.68-64.3-1-21.21-.32-42.41-.63-63.62-.94-2.51-.04-3.85,1.04-3.9,3.39-.1,4.66-.15,9.32-.05,13.97,.03,1.56,.24,3.31,.98,4.62,1.74,3.05,1.49,6.13,.69,9.25-.92,3.62-2.19,7.16-2.19,10.97,0,5.61-.07,11.21-.2,16.82-.05,2.2,.4,4.26,.97,6.36,1.17,4.3,1.81,8.63,.56,13.09-.77,2.76-1.48,5.61-1.67,8.45-.31,4.7-.45,9.4,.73,14.11,.59,2.38,.28,5.04,.09,7.54-.18,2.29-.98,4.53-1.12,6.82-.24,3.78-.19,7.57-.21,11.36,0,.36,.28,.87,.59,1.07,1.34,.88,1.5,1.88,.38,3.04-.33,.35-.92,.71-.93,1.07-.04,1.53-.35,3.28,.25,4.57,1.94,4.15,1.59,8.14,0,12.22-.32,.83-.54,1.75-.57,2.63-.1,3.26-.13,6.51-.14,9.77,0,.75,.06,1.54,.32,2.23,1.41,3.84,1.74,7.82,1.7,11.85-.02,2.38-.48,4.66-1.76,6.73-.2,.32-.4,.69-.41,1.05-.06,2.19-.11,4.39-.06,6.58,0,.4,.38,.96,.74,1.14,.22,.12,.82-.24,1.11-.53,9.4-9.4,18.8-18.8,28.15-28.24,1.74-1.76,2.68-3.81,2.63-6.48-.28-16.02-.4-32.04-.57-48.07,0-.61-.14-1.29,.09-1.8,.26-.58,.8-1.33,1.33-1.43,1.43-.28,2.92-.35,4.38-.32,3.59,.06,7.19,.22,10.78,.34,5.83,.19,11.66,.31,17.49,.6,3.02,.15,5.4-1.04,7.35-3.12,8.13-8.63,16.2-17.31,24.29-25.97,.55-.59,1.15-1.17,.77-2.08-.39-.93-1.24-1.02-2.09-1.05-2.35-.09-4.69-.18-7.04-.26-17.6-.56-35.2-1.13-52.8-1.68-.34-.01-.69-.02-1.01,.06-2.06,.5-2.74,.02-2.79-2.06-.23-10.57-.45-21.13-.66-31.7-.05-2.81,1.39-4.23,4.24-4.21,6.51,.05,13.03,.11,19.54,.18,11.36,.12,22.72,.27,34.08,.37,.59,0,1.31-.15,1.74-.51,1.07-.89,2.02-1.93,3-2.92,.45-.46,.87-.95,1.3-1.42l-.18-.42c-1.42,0-2.84,.01-4.26,0-18.63-.16-37.27-.31-55.9-.48-1.48-.01-2.95-.12-4.42-.23-.38-.03-.74-.23-1.11-.35l.04-.43c.64-.13,1.29-.34,1.94-.38,1.4-.07,2.8-.08,4.2-.07,13.14,.09,26.28,.18,39.43,.28,6.25,.05,12.5,.11,18.75,.19,.93,.01,1.86,.1,2.8,.15v.3l1.32-.81c-1.18,3.1-3.86,4.59-5.9,6.99Z"/><path class="cls-1" d="M145.58,205.71c-.52-.41-.8-.58-1.02-.81-3-3.09-6.63-5.23-10.54-6.95-.52-.23-1.03-.64-1.37-1.09-3.1-4.06-5.97-8.31-9.27-12.19-4.36-5.12-8.53-10.44-13.75-14.77-1.28-1.06-2.57-2.19-3.49-3.54-.94-1.37-1.44-3.05-2.09-4.61-.08-.2,.07-.51,.16-.76,.17-.46,.37-.91,.58-1.36,1.04-2.22,1.02-4.33-.35-6.45-2.14-3.31-1.38-6.71-.21-10.15,.53-1.55,1.02-3.2,1.04-4.81,.04-2.97,.2-5.88,.91-8.78,.4-1.64,.36-3.38,.59-5.07,.12-.91,.43-1.79,.6-2.69,.06-.3,.05-.68-.08-.95-1.31-2.76-3.12-5.14-5.8-6.63-.76-.42-2-.24-2.94-.02-1.84,.42-3.6,.53-5.48,.06-1.78-.45-3.61-.08-5.36,.51-1.19,.4-2.33,.3-3.56,0-1.26-.32-2.62-.44-3.91-.36-3.56,.22-7.07,.52-10.37-1.37-1.43-.82-2.49-1.77-2.95-3.39-.15-.53-.58-1.05-1.02-1.43-.89-.76-1.93-1.36-2.78-2.15-.73-.68-1.51-1.46-1.89-2.35-.73-1.75-1.95-3.05-3.54-3.85-2.12-1.07-3.39-2.8-4.57-4.73-.57-.94-1.39-1.78-2.26-2.46-1.23-.95-2.29-1.97-2.91-3.41-.11-.26-.31-.49-.48-.75-1.38,1.14-1.29,.92-3.04,.22-2.29-.91-2.7-2.86-3.46-4.78-.56-1.41-1.52-2.67-2.33-3.98-.45-.74-1.03-1.41-1.42-2.17-1.28-2.55-.13-4.74,2.7-5.1,1.9-.24,3.82-.39,5.73-.5,.62-.03,1.3,.09,1.88,.33,1.18,.48,2.31,.49,3.54,.2,1.76-.42,3.56-.7,5.35-1,.44-.08,.93-.14,1.35-.03,2.84,.77,5.62,.22,8.44-.16,1.5-.2,3.12-.17,4.58,.18,2.16,.52,4.29,.48,6.42,.18,3.06-.44,6.09-.56,9.16-.16,1.25,.16,2.59,.19,3.82-.06,3.09-.62,6.14-.79,9.22-.03,.92,.23,1.66-.07,2.45-.54,2.51-1.52,4.63-3.4,5.95-6.06,.19-.39,.33-.85,.35-1.29,.16-3.9,.29-7.8,.41-11.7,.01-.41-.01-.87-.19-1.22-2.07-4-4.89-7.26-9.14-9.05-.44-.18-.95-.25-1.43-.27-1.27-.05-2.54-.08-3.8-.02-.39,.02-.93,.27-1.1,.58-1.15,2.04-2.66,2.84-5.05,2.14-1.22-.36-2.59-.05-3.68-1.1-.3-.29-1.15-.04-1.74,.03-.29,.03-.61,.14-.85,.31-2.03,1.49-4.45,1.38-6.74,1.45-1.56,.05-3.15-.57-4.72-.93-.24-.05-.58-.25-.63-.44-.33-1.43-1.3-.85-2.15-.76-1.39,.15-2.79,.28-4.18,.34-.78,.04-1.33,.27-1.81,.93-.25,.34-.86,.62-1.29,.6-3.33-.17-6.65-.38-9.97-.68-1.42-.13-2.82-.54-4.23-.79-2.38-.43-4.74-1.07-7.13-1.22-4.12-.26-6.67-2.71-9.02-5.68-.69-.87-1.54-1.69-2.47-2.28-2.94-1.85-5.17-4.4-7.42-6.97-.91-1.04-1.96-1.96-2.95-2.92-1.93-1.86-3.89-3.68-5.78-5.57-2.47-2.45-4.92-4.93-7.31-7.45-1.29-1.36-2.45-2.84-3.79-4.42,.49-.16,.85-.34,1.23-.4,2.36-.36,4.71-.73,7.07-1.03,4.96-.62,9.91-1.29,14.88-1.76,4.9-.46,9.82-.67,14.72-1.04,2.23-.16,4.44-.43,6.66-.65,.26-.03,.54-.11,.79-.05,3.52,.78,7.02,.09,10.52-.11,4.58-.26,9.16-.46,13.71,.35,3.11,.55,6.17,.08,9.26-.26,3.91-.43,7.85-.6,11.78-.71,1.53-.04,3.06,.5,4.6,.57,1.65,.07,3.31-.1,4.97-.2,1.06-.06,2.11-.21,3.16-.26,2.19-.1,4.39-.24,6.58-.23,1.58,0,3.15,.26,4.73,.35,2.15,.13,4.3,.24,6.45,.29,2.91,.07,5.83,.15,8.74,.08,2.37-.05,4.75-.25,7.11-.49,3.06-.3,5.97-.08,8.56,1.79,.91,.65,1.52,1.49,1.57,2.63,.04,.79-.06,1.59-.03,2.38,.06,1.54,.01,3.1,.27,4.61,.45,2.69-.08,5.27-.56,7.88-.29,1.59-.61,3.21-.63,4.82-.1,5.91-.02,11.82-.13,17.73-.04,2.06,.48,3.94,1.03,5.88,.96,3.41,.83,6.9,.36,10.37-.37,2.77-.81,5.54-1.19,8.31-.12,.9-.25,1.81-.26,2.71-.04,6.51-.11,13.03-.05,19.54,.02,2.15,.44,4.29,.53,6.44,.07,1.61-.08,3.22-.19,4.83-.08,1.2-.36,2.4-.38,3.6-.07,4.32-.13,8.64-.05,12.95,.03,1.99,.12,4.05,.65,5.94,.99,3.53,.47,6.87-.43,10.29-.27,1.01-.08,2.14-.05,3.21,.03,1.31,.19,2.62,.14,3.92-.06,1.58-.38,3.15-.43,4.72-.08,2.8-.06,5.61-.03,8.41,0,.7,.08,1.49,.4,2.09,1.95,3.65,1.49,7.29,.22,11-.41,1.19-.66,2.5-.68,3.76-.08,5.15-.08,10.3-.01,15.45,.01,1.07,.26,2.2,.68,3.18,1.05,2.46,1.03,4.92,.47,7.46-.12,.53-.02,1.1-.06,1.66-.07,.99,.14,2.17-.33,2.91-.81,1.26-1.24,2.46-.76,4.21ZM48.18,32.61c.46,.54,.65,.81,.89,1.04,1.02,1.02,2.13,1.95,3.03,3.06,.65,.8,1.31,1.07,2.31,1.07,17.88,.06,35.75,.16,53.63,.25,2.85,.01,4.26,1.47,4.17,4.28-.36,10.41-.73,20.82-1.11,31.23-.02,.56-.06,1.15-.25,1.67-.3,.86-.96,1.2-1.89,1.01-.73-.15-1.48-.28-2.22-.27-3.9,.05-7.8,.16-11.7,.23-15.83,.27-31.66,.54-47.48,.81-.89,.01-1.81,.01-2.25,.97-.45,.99,.24,1.63,.83,2.28,7.97,8.77,15.91,17.57,23.92,26.31,1.87,2.04,4.21,3.13,7.15,3.06,9.84-.25,19.69-.37,29.53-.5,1.08-.01,2.19,.13,3.24,.39,.45,.11,.93,.65,1.14,1.11,.22,.48,.21,1.11,.19,1.67-.41,16.09-.77,32.19-1.31,48.27-.1,2.88,.87,5.07,2.75,7.01,9.11,9.42,18.22,18.83,27.36,28.22,.34,.35,.85,.52,1.28,.78,.28-.5,.82-1.01,.81-1.5-.06-2.98,.71-6.09-1.18-8.83-.16-.24-.21-.57-.29-.86-1.22-4.37-.82-8.8,.35-13.02,.9-3.27,1.37-6.48,1.26-9.82-.06-1.82,.03-3.64-.02-5.45-.02-.71-.1-1.45-.36-2.1-1.73-4.34-1.99-8.56,.11-12.97,.78-1.63,1.11-3.85-.81-5.51-1.08-.93-.73-2.15,.51-2.85,.3-.17,.65-.59,.64-.89-.03-4.99,.53-10.01-.52-14.95-1.01-4.71-1.23-9.36,.26-14.01,.24-.75,.34-1.56,.39-2.35,.37-5.25-.03-10.47-1.33-15.54-1.31-5.1-1.06-10.05,.51-14.98,.61-1.91,.92-3.8,.91-5.79-.01-5.23-.09-10.46,.09-15.68,.14-4.17-.79-8.09-1.9-12.04-.78-2.76-1.23-5.68,.13-8.34,1.27-2.49,1.77-5.05,1.82-7.75,.08-3.82,.06-7.65,.06-11.48,0-2.92-1.25-4.13-4.17-4.13-42.64,.05-85.29,.1-127.93,.15-.34,0-.68-.02-1.02,.02-.97,.09-1.34,.56-.92,1.45,.42,.87,.97,1.71,1.63,2.4,5.48,5.77,10.96,11.53,16.5,17.23,2.87,2.94,5.83,5.79,8.81,8.62,1.58,1.5,3.57,2.08,5.72,2.1,2.99,.04,5.98,.05,8.97,.07,.31,0,.62-.08,1.17-.16-1.98-2.41-4.66-3.96-5.74-7.01,.6,.33,1.21,.87,1.4,.75,1.16-.75,2.38-.26,3.54-.26,19.54,.1,39.08,.23,58.62,.37,1.21,0,2.42,.04,3.63,.13,.42,.03,.82,.27,1.23,.41l-.05,.43c-.49,.11-.98,.29-1.47,.31-1.89,.06-3.79,.09-5.68,.08-18.94-.12-37.87-.25-56.81-.36-.58,0-1.17,.09-2.09,.17Z"/><path class="cls-1" d="M173.51,144.25h.34c0,10,0,19.99,0,29.98,0,2.69,.08,5.37,.12,8.06,0,.66,.15,1.28,.95,1.28,.8,0,.94-.63,.95-1.29,0-.61-.02-1.21-.01-1.82,.08-17.26,.21-34.52,.22-51.78,0-7.3-.23-14.61-.41-21.91-.02-.62-.49-1.77-.71-1.76-1.13,.04-.79,1.09-.8,1.76-.23,12.49-.43,24.98-.64,37.47Zm48.76-52.56v-.17c-7.87,0-15.75,0-23.62,.01-.6,0-1.21,.12-1.78,.29-.26,.08-.64,.48-.61,.65,.06,.29,.38,.68,.66,.74,.88,.2,1.79,.35,2.69,.38,15.59,.37,31.19,.71,46.78,1.05,1.06,.02,1.79-.6,1.81-1.48,.02-.86-.72-1.55-1.74-1.57-.76-.01-1.51,.08-2.27,.08-7.31,0-14.61,0-21.92,0Zm-20.82-71.49v-.21c-5.06-.1-10.13-.22-15.2-.3-.79-.01-1.61,.04-2.36,.26-.37,.11-.84,.63-.87,.99-.03,.35,.37,.9,.73,1.09,.51,.27,1.15,.37,1.75,.4,3.55,.18,7.11,.38,10.66,.46,7.15,.15,14.3,.22,21.45,.32,.26,0,.59,.08,.78-.04,.44-.28,1.16-.69,1.14-.99-.04-.46-.58-.92-.99-1.28-.19-.17-.58-.13-.88-.14-5.41-.18-10.81-.36-16.22-.54Zm-17.87-9.45l-.08,.51c.35,.12,.69,.32,1.05,.35,.83,.07,1.66,.07,2.5,.08,22.52,.16,45.05,.31,67.57,.46,5.53,.04,11.05,.05,16.58,.11,.98,.01,1.95,.28,2.92,.29,.33,0,.66-.44,.99-.68-.31-.26-.6-.56-.94-.77-.12-.08-.37,.03-.55,.04-1.09,.09-2.18,.26-3.26,.25-9.8-.12-19.6-.31-29.41-.4-12.72-.12-25.44-.15-38.16-.25-5.56-.04-11.13-.18-16.69-.24-.84,0-1.68,.16-2.52,.25Zm9.2,122.18h-.15c0,5.91-.01,11.82,.01,17.73,0,.94,.16,1.88,.34,2.8,.05,.25,.43,.44,.66,.66,.19-.21,.49-.38,.56-.62,.19-.73,.41-1.47,.41-2.22,.01-11.59-.02-23.18-.01-34.76,0-1.16,.21-2.33,.2-3.49,0-.47-.2-1.06-.53-1.36-.23-.21-.99-.2-1.21,.02-.32,.31-.47,.9-.49,1.38-.03,.67,.18,1.35,.19,2.02,.02,5.95,0,11.89,0,17.84Zm7.86-50.99l-.12,.56c.41,.12,.82,.32,1.24,.34,2.91,.14,5.82,.25,8.73,.34,13.5,.44,27,.87,40.49,1.31,.8,.03,1.52-.08,1.5-1.07-.01-.95-.71-1.1-1.52-1.1-8.29,0-16.57,.02-24.86-.07-7.34-.08-14.68-.31-22.02-.44-1.15-.02-2.31,.09-3.46,.14Zm25.85-55.48c1.48-.09,2.99-.54,4.21-1.67,2.35-2.16,1.77-5.41-1.18-6.6-2.93-1.19-5.36-.15-7.38,1.94-1.37,1.42-1.12,3.56,.35,4.87,1.09,.97,2.39,1.42,4,1.45Zm-50.29-1.73l-.51,.02c-.06,.99-.17,1.97-.17,2.96-.13,17.99-.24,35.97-.39,53.96-.03,3.52-.17,7.04-.3,10.56-.02,.65-.09,1.34,.73,1.39,.86,.04,.81-.68,.81-1.31-.04-15.22-.09-30.44-.1-45.66,0-6.93,.08-13.86,.12-20.78,0-.37-.12-.75-.19-1.12Zm7.4,56.19l-.41,.06c-.07,.43-.19,.87-.2,1.3-.04,1.81-.05,3.63-.05,5.45-.05,12.11-.1,24.22-.16,36.32,0,.74,.24,1.36,1.05,1.3,.78-.05,1.01-.71,.95-1.43-.06-.68-.23-1.35-.24-2.02-.11-10.75-.18-21.49-.3-32.24-.03-2.57-.18-5.14-.3-7.71-.02-.35-.21-.69-.33-1.04Zm-1.02,73.05h.34c0,2.27,0,4.54,0,6.81,0,2.27-.01,4.54-.01,6.81,0,.67,.21,1.25,1,1.24,.77-.01,1.01-.58,1-1.25,0-.57-.08-1.13-.08-1.7-.03-7.53-.04-15.06-.09-22.59,0-1.4-.11-2.8-.3-4.18-.07-.54-.5-1.04-.76-1.56-.22,.52-.62,1.03-.64,1.56-.19,4.95-.32,9.9-.46,14.86Zm-1.97-142.5c-.09-.38-.15-.87-.31-1.33-.29-.86-.85-1.41-1.8-1.49-.94-.09-1.47,.36-1.8,1.21-.16,.41-.49,.75-.75,1.13-1.48,2.18-2.47,4.54-2.06,7.23,.1,.63,.69,1.52,1.22,1.66,.62,.16,1.65-.15,2.11-.64,2.01-2.13,3.03-4.75,3.39-7.76Zm72.65,9.48v-.28c-5.9,0-11.8,0-17.7,0-.49,0-.99-.03-1.47,.06-.28,.05-.51,.33-.77,.5,.2,.2,.36,.52,.6,.59,.47,.13,.97,.15,1.46,.16,12.22,.22,24.43,.43,36.65,.61,.37,0,.75-.4,1.12-.62-.35-.2-.7-.58-1.05-.59-6.28-.17-12.56-.3-18.83-.44Zm-67.36,7.6l-.48-.13c-.11,.41-.3,.81-.31,1.22-.1,2.65-.15,5.3-.23,7.95-.28,9.69-.56,19.38-.86,29.07-.02,.6-.22,1.19-.24,1.78-.01,.33,.11,.72,.3,.99,.09,.13,.59,.18,.69,.06,.23-.24,.45-.6,.46-.92,.03-1.46-.06-2.93-.03-4.39,.25-11.32,.52-22.64,.78-33.96,.01-.56-.06-1.12-.09-1.67Zm3.71,70.02h-.04c0,3.52,0,7.03,0,10.55,0,.37,0,.79,.15,1.11,.12,.26,.52,.61,.72,.57,.29-.06,.56-.42,.72-.71,.12-.21,.07-.52,.07-.78,.04-6.35,.09-12.71,.1-19.06,0-1.17-.16-2.34-.32-3.5-.03-.25-.38-.47-.58-.7-.24,.24-.58,.44-.7,.74-.14,.33-.12,.74-.12,1.12,0,3.55,0,7.11,0,10.66ZM281.91,26.62c2.35,.01,4.98-2.27,5.23-4.55,.1-.95-.16-1.75-1.05-2.19-.86-.43-1.76-.49-2.55,.17-.64,.52-1.29,1.04-1.83,1.66-.61,.7-1.21,1.46-1.59,2.29-.63,1.37,.28,2.61,1.79,2.62Zm-76.86,77.81v.16c2.16,0,4.31,0,6.47,0,.49,0,1.02,.06,1.46-.09,.31-.11,.66-.51,.71-.82,.03-.22-.37-.59-.66-.75-.24-.14-.59-.11-.89-.11-4.8-.01-9.61-.03-14.41-.02-.44,0-.92,.07-1.32,.25-.62,.29-.59,.91,.04,1.19,.33,.15,.74,.19,1.11,.19,2.5,.02,4.99,0,7.49,0Zm3.54-17.09l.05,.44c.42,.08,.84,.21,1.26,.22,2.34,.04,4.69,.04,7.03,.08,7.3,.11,14.6,.24,21.9,.33,.28,0,.55-.32,.83-.49-.24-.18-.47-.51-.71-.51-3.1-.06-6.19-.07-9.29-.11-6.62-.08-13.24-.18-19.86-.25-.4,0-.8,.19-1.2,.29Zm-15.2-55.72l-.55-.03c-.08,.51-.24,1.02-.23,1.53,.05,6.82,.13,13.63,.19,20.45,.03,2.84,.02,5.68,.07,8.52,0,.31,.29,.61,.44,.92,.17-.32,.46-.63,.48-.96,.04-.75-.09-1.51-.09-2.26,0-5.53,.03-11.06,.03-16.59,0-3.37-.03-6.74-.08-10.11,0-.49-.17-.98-.26-1.47Zm32.04,71.52v-.08c-1.55,0-3.1-.05-4.64,.03-.44,.02-.85,.41-1.28,.64,.4,.27,.77,.74,1.19,.78,3.94,.39,7.89,.72,11.84,1.05,.62,.05,1.31-.01,1.4-.8,.1-.87-.62-1.05-1.28-1.1-2.41-.19-4.82-.35-7.23-.52Zm-54.87,87.9l.39,.34c.6-.42,1.29-.76,1.8-1.28,3-3.04,5.97-6.11,8.9-9.22,.3-.32,.53-1.15,.34-1.42-.51-.69-1.09-.16-1.5,.28-2.98,3.16-5.96,6.33-8.9,9.54-.45,.49-.69,1.17-1.03,1.76Zm73.63-90.94c-.26-.34-.46-.88-.74-.92-.49-.07-1.19-.01-1.52,.3-2.11,2-4.18,4.06-6.18,6.17-.33,.35-.31,1.05-.44,1.59,.51-.11,1.14-.06,1.5-.35,2.28-1.87,4.51-3.8,6.73-5.73,.27-.23,.39-.62,.65-1.04Zm-51.82,68.04l.24,.22c.17-.04,.4-.02,.51-.12,1.96-1.78,3.93-3.55,5.84-5.38,.19-.18,.13-.68,.11-1.02-.02-.29-.21-.58-.2-.86,.13-2.91,.3-5.81,.42-8.72,.01-.3-.12-.66-.31-.89-.09-.11-.59-.09-.69,.03-.18,.23-.28,.59-.28,.89,.01,.52,.21,1.04,.2,1.55-.07,2.5-.15,4.99-.3,7.48-.03,.5-.32,1.07-.66,1.44-1.37,1.46-2.82,2.85-4.22,4.29-.29,.3-.45,.71-.67,1.08ZM297.1,8.94l-.27-.27c-.37,.26-.8,.46-1.11,.78-2.75,2.76-5.49,5.53-8.21,8.32-.22,.23-.21,.7-.3,1.05,.36-.11,.83-.11,1.06-.34,2.75-2.81,5.47-5.66,8.18-8.51,.28-.29,.44-.69,.65-1.04Zm-52.72,81.07c1.02,.02,1.79-.67,1.81-1.61,.02-1.05-1.37-2.24-2.68-2.3-.98-.04-1.74,.59-1.78,1.49-.06,1.18,1.28,2.4,2.65,2.43Zm-65.28-6.77h.24c.05-.5,.15-1.01,.15-1.52,.1-7.27,.19-14.53,.28-21.8,0-.42,.07-.84,.02-1.25-.03-.19-.26-.36-.41-.53-.11,.18-.26,.34-.3,.53-.05,.21,0,.45-.01,.68-.02,7.46-.05,14.92-.06,22.37,0,.51,.06,1.01,.09,1.52Zm.19,85.39h.3c.04-.68,.11-1.35,.12-2.03,.12-7.82,.24-15.65,.32-23.47,0-.25-.31-.51-.48-.76-.16,.29-.46,.57-.46,.86,0,1.13,.13,2.26,.13,3.39,.04,6.73,.05,13.47,.07,20.2,0,.6,0,1.2,0,1.8ZM271.82,35.81l.23,.21c.27-.16,.58-.28,.79-.49,2.25-2.24,4.49-4.47,6.69-6.76,.24-.25,.13-.84,.19-1.27-.39,.13-.9,.15-1.15,.41-2.08,2.24-4.11,4.52-6.14,6.81-.27,.3-.41,.72-.61,1.09Zm-75.83,32.74l-.38-.06c-.1,.35-.26,.69-.28,1.05-.04,.75,.02,1.51,0,2.27-.04,3.33-.1,6.65-.12,9.98,0,.53,.21,1.06,.32,1.59l.44-.07v-14.75Zm-12.73,65.8c.52-.15,.75-.19,.94-.29,.87-.45,1.83-2.87,1.53-3.84-.27-.88-1.12-1.18-1.89-.68-.82,.54-1.83,2.71-1.53,3.62,.16,.48,.66,.84,.95,1.18Zm18.81-47.81c-.09,1.1,1.01,2.23,2.3,2.35,1,.1,1.86-.56,1.94-1.47,.1-1.12-.91-2-2.44-2.14-1.05-.1-1.72,.37-1.8,1.25Zm-10.3-10.93c.03-1.04-.8-1.94-1.8-1.96-1.13-.02-1.95,.63-1.97,1.58-.03,1.07,.67,1.83,1.7,1.87,1.13,.05,2.04-.61,2.06-1.49Zm-15.36,24.76c.02-1.2-.64-2.02-1.65-2.02-.95,0-1.53,.65-1.54,1.71,0,1.37,.59,2.23,1.55,2.24,.94,0,1.62-.79,1.64-1.93Zm13.21,38.05l-.33-.06c-.04,.26-.13,.51-.12,.77,.02,.52,.14,1.05,.13,1.57-.11,6.2-.24,12.4-.34,18.6-.01,.72,.16,1.45,.24,2.18l.41-.04v-23.02Zm-.93-74.76h.26v-19.65h-.26v19.65Zm70.92,17.95l-.3-.21c-.37,.33-.77,.64-1.1,1-1.3,1.42-2.6,2.84-3.83,4.31-.19,.23-.06,.72-.08,1.09,.39-.06,.96,.03,1.15-.2,1.32-1.65,2.56-3.36,3.8-5.06,.19-.26,.25-.61,.36-.93Zm-70.43,92.09c-.22-.28-.37-.67-.62-.74-.35-.09-.92-.09-1.14,.13-.73,.74-1.37,1.58-1.99,2.42-.14,.19-.12,.72,0,.81,.22,.14,.68,.18,.89,.04,.84-.55,1.65-1.16,2.42-1.8,.2-.17,.26-.51,.42-.86Zm27.47-71.24c-.76-.06-1.59,.21-1.42,.98,.11,.49,1.03,.94,1.67,1.13,.65,.19,1.35-.15,1.35-.96,0-1.02-.81-1.12-1.61-1.15Z"/><path class="cls-1" d="M173.51,144.25c.21-12.49,.41-24.98,.64-37.47,.01-.67-.33-1.71,.8-1.76,.22,0,.69,1.14,.71,1.76,.18,7.3,.42,14.61,.41,21.91,0,17.26-.14,34.52-.22,51.78,0,.61,.02,1.21,.01,1.82,0,.65-.15,1.29-.95,1.29-.79,0-.94-.62-.95-1.28-.04-2.69-.11-5.37-.12-8.06-.01-9.99,0-19.99,0-29.98h-.34Z"/><path class="cls-1" d="M222.27,91.69c7.31,0,14.61,0,21.92,0,.76,0,1.51-.09,2.27-.08,1.03,.02,1.76,.71,1.74,1.57-.02,.88-.75,1.5-1.81,1.48-15.59-.34-31.19-.69-46.78-1.05-.9-.02-1.81-.18-2.69-.38-.28-.06-.6-.45-.66-.74-.04-.18,.35-.57,.61-.65,.57-.17,1.18-.29,1.78-.29,7.87-.02,15.75-.01,23.62-.01v.17Z"/><path class="cls-1" d="M201.45,20.2c5.41,.18,10.81,.36,16.22,.54,.3,.01,.69-.02,.88,.14,.41,.36,.95,.82,.99,1.28,.03,.3-.7,.71-1.14,.99-.19,.12-.52,.05-.78,.04-7.15-.1-14.3-.17-21.45-.32-3.56-.07-7.11-.28-10.66-.46-.59-.03-1.23-.13-1.75-.4-.36-.19-.76-.73-.73-1.09,.03-.36,.5-.89,.87-.99,.75-.21,1.57-.27,2.36-.26,5.07,.08,10.14,.2,15.21,.3v.21Z"/><path class="cls-1" d="M183.58,10.75c.84-.09,1.68-.26,2.52-.25,5.56,.06,11.13,.2,16.69,.24,12.72,.1,25.44,.14,38.16,.25,9.8,.09,19.6,.28,29.41,.4,1.09,.01,2.18-.16,3.26-.25,.19-.02,.43-.12,.55-.04,.34,.22,.63,.51,.94,.77-.33,.24-.66,.68-.99,.68-.98,0-1.95-.28-2.92-.29-5.53-.06-11.05-.08-16.58-.11-22.52-.15-45.05-.31-67.57-.46-.83,0-1.67,0-2.5-.08-.36-.03-.7-.23-1.05-.35l.08-.51Z"/><path class="cls-1" d="M192.79,132.93c0-5.95,0-11.89,0-17.84,0-.67-.22-1.35-.19-2.02,.02-.48,.17-1.07,.49-1.38,.22-.22,.98-.23,1.21-.02,.33,.3,.53,.89,.53,1.36,0,1.16-.2,2.33-.2,3.49,0,11.59,.02,23.18,.01,34.76,0,.74-.22,1.49-.41,2.22-.06,.24-.36,.42-.56,.62-.23-.22-.61-.41-.66-.66-.18-.92-.34-1.87-.34-2.8-.03-5.91-.01-11.82-.01-17.73h.15Z"/><path class="cls-1" d="M200.65,81.94c1.15-.05,2.31-.16,3.46-.14,7.34,.14,14.68,.36,22.02,.44,8.28,.09,16.57,.06,24.86,.07,.8,0,1.5,.15,1.52,1.1,.02,.99-.71,1.1-1.5,1.07-13.5-.44-27-.87-40.49-1.31-2.91-.09-5.82-.21-8.73-.34-.42-.02-.83-.22-1.24-.34l.12-.56Z"/><path class="cls-1" d="M226.49,26.46c-1.61-.03-2.91-.48-4-1.45-1.48-1.32-1.73-3.45-.35-4.87,2.02-2.09,4.45-3.13,7.38-1.94,2.95,1.19,3.53,4.45,1.18,6.6-1.23,1.12-2.73,1.58-4.21,1.67Z"/><path class="cls-1" d="M176.2,24.72c.07,.37,.19,.75,.19,1.12-.03,6.93-.12,13.86-.12,20.78,0,15.22,.06,30.44,.1,45.66,0,.63,.05,1.36-.81,1.31-.82-.04-.75-.74-.73-1.39,.12-3.52,.27-7.04,.3-10.56,.14-17.99,.25-35.97,.39-53.96,0-.99,.11-1.97,.17-2.96l.51-.02Z"/><path class="cls-1" d="M183.6,80.91c.11,.35,.31,.69,.33,1.04,.13,2.57,.28,5.14,.3,7.71,.12,10.75,.19,21.49,.3,32.24,0,.67,.18,1.35,.24,2.02,.07,.72-.17,1.37-.95,1.43-.81,.06-1.05-.57-1.05-1.3,.05-12.11,.1-24.22,.16-36.32,0-1.82,.02-3.63,.05-5.45,0-.44,.13-.87,.2-1.3l.41-.06Z"/><path class="cls-1" d="M182.58,153.96c.14-4.95,.27-9.9,.46-14.86,.02-.53,.41-1.04,.64-1.56,.26,.52,.69,1.01,.76,1.56,.19,1.38,.29,2.79,.3,4.18,.05,7.53,.06,15.06,.09,22.59,0,.57,.08,1.13,.08,1.7,0,.67-.23,1.24-1,1.25-.79,.01-1-.56-1-1.24,0-2.27,.01-4.54,.01-6.81,0-2.27,0-4.54,0-6.81h-.34Z"/><path class="cls-1" d="M180.61,11.46c-.36,3.01-1.38,5.64-3.39,7.76-.46,.48-1.48,.8-2.11,.64-.53-.14-1.12-1.03-1.22-1.66-.41-2.69,.57-5.04,2.06-7.23,.25-.37,.59-.72,.75-1.13,.33-.86,.86-1.3,1.8-1.21,.95,.09,1.51,.64,1.8,1.49,.15,.46,.22,.95,.31,1.33Z"/><path class="cls-1" d="M253.25,20.94c6.28,.14,12.56,.27,18.83,.44,.36,0,.7,.38,1.05,.59-.37,.22-.75,.63-1.12,.62-12.22-.18-24.44-.39-36.65-.61-.49,0-.99-.03-1.46-.16-.23-.07-.4-.38-.6-.59,.25-.17,.49-.45,.77-.5,.48-.09,.98-.06,1.47-.06,5.9,0,11.8,0,17.7,0v.28Z"/><path class="cls-1" d="M185.89,28.54c.03,.56,.1,1.12,.09,1.67-.26,11.32-.53,22.64-.78,33.96-.03,1.46,.06,2.93,.03,4.39,0,.32-.23,.68-.46,.92-.11,.11-.6,.07-.69-.06-.19-.28-.31-.66-.3-.99,.02-.6,.23-1.19,.24-1.78,.3-9.69,.58-19.38,.86-29.07,.08-2.65,.13-5.3,.23-7.95,.01-.41,.2-.81,.31-1.22l.48,.13Z"/><path class="cls-1" d="M189.6,98.56c0-3.55,0-7.11,0-10.66,0-.38-.02-.79,.12-1.12,.12-.29,.46-.49,.7-.74,.2,.23,.55,.44,.58,.7,.16,1.16,.32,2.33,.32,3.5,0,6.35-.06,12.71-.1,19.06,0,.26,.05,.57-.07,.78-.17,.29-.44,.64-.72,.71-.2,.04-.6-.31-.72-.57-.15-.32-.15-.73-.15-1.11,0-3.52,0-7.03,0-10.55h.04Z"/><path class="cls-1" d="M281.91,26.62c-1.5,0-2.41-1.25-1.79-2.62,.38-.83,.99-1.59,1.59-2.29,.53-.62,1.19-1.14,1.83-1.66,.8-.65,1.7-.6,2.55-.17,.88,.44,1.15,1.25,1.05,2.19-.25,2.28-2.89,4.56-5.23,4.55Z"/><path class="cls-1" d="M205.05,104.43c-2.5,0-4.99,0-7.49,0-.37,0-.77-.04-1.11-.19-.63-.28-.66-.9-.04-1.19,.39-.19,.87-.25,1.32-.25,4.8,0,9.61,0,14.41,.02,.3,0,.65-.03,.89,.11,.29,.17,.69,.53,.66,.75-.05,.31-.4,.72-.71,.82-.45,.15-.97,.09-1.46,.09-2.16,0-4.31,0-6.47,0v-.16Z"/><path class="cls-1" d="M208.58,87.35c.4-.1,.8-.3,1.2-.29,6.62,.07,13.24,.17,19.86,.25,3.1,.04,6.19,.05,9.29,.11,.24,0,.47,.34,.71,.51-.28,.17-.56,.5-.83,.49-7.3-.09-14.6-.22-21.9-.33-2.34-.04-4.69-.04-7.03-.08-.42,0-.84-.14-1.26-.22l-.05-.44Z"/><path class="cls-1" d="M193.39,31.63c.09,.49,.25,.98,.26,1.47,.05,3.37,.08,6.74,.08,10.11,0,5.53-.02,11.06-.03,16.59,0,.76,.13,1.51,.09,2.26-.02,.33-.31,.64-.48,.96-.15-.31-.43-.61-.44-.92-.05-2.84-.05-5.68-.07-8.52-.06-6.82-.14-13.63-.19-20.45,0-.51,.15-1.02,.23-1.53l.55,.03Z"/><path class="cls-1" d="M225.43,103.14c2.41,.17,4.82,.32,7.23,.52,.66,.05,1.37,.23,1.28,1.1-.09,.79-.78,.85-1.4,.8-3.95-.33-7.9-.66-11.84-1.05-.42-.04-.79-.51-1.19-.78,.43-.22,.84-.61,1.28-.64,1.54-.08,3.1-.03,4.64-.03v.08Z"/><path class="cls-1" d="M170.56,191.04c.34-.59,.58-1.27,1.03-1.76,2.94-3.2,5.92-6.37,8.9-9.54,.41-.44,1-.97,1.5-.28,.19,.26-.04,1.09-.34,1.42-2.93,3.11-5.9,6.17-8.9,9.22-.51,.52-1.19,.86-1.8,1.28l-.39-.34Z"/><path class="cls-1" d="M244.19,100.1c-.26,.42-.38,.81-.65,1.04-2.22,1.94-4.45,3.87-6.73,5.73-.36,.29-.99,.24-1.5,.35,.14-.54,.11-1.23,.44-1.59,2.01-2.11,4.07-4.17,6.18-6.17,.33-.31,1.03-.36,1.52-.3,.27,.04,.48,.58,.74,.92Z"/><path class="cls-1" d="M192.37,168.14c.22-.36,.38-.78,.67-1.08,1.39-1.44,2.85-2.83,4.22-4.29,.35-.37,.63-.94,.66-1.44,.16-2.49,.24-4.99,.3-7.48,.01-.52-.18-1.03-.2-1.55,0-.3,.09-.66,.28-.89,.1-.13,.6-.15,.69-.03,.19,.23,.32,.59,.31,.89-.12,2.91-.29,5.81-.42,8.72-.01,.28,.18,.57,.2,.86,.02,.35,.08,.84-.11,1.02-1.92,1.82-3.88,3.6-5.84,5.38-.11,.1-.34,.08-.51,.12l-.24-.22Z"/><path class="cls-1" d="M297.1,8.94c-.21,.35-.37,.75-.65,1.04-2.71,2.85-5.43,5.7-8.18,8.51-.23,.23-.7,.23-1.06,.34,.09-.36,.08-.82,.3-1.05,2.71-2.8,5.45-5.57,8.21-8.32,.31-.32,.74-.52,1.11-.78l.27,.27Z"/><path class="cls-1" d="M244.38,90.01c-1.37-.02-2.71-1.25-2.65-2.43,.04-.9,.8-1.53,1.78-1.49,1.31,.06,2.7,1.25,2.68,2.3-.02,.94-.79,1.63-1.81,1.61Z"/><path class="cls-1" d="M179.09,83.24c-.03-.51-.09-1.01-.09-1.52,.02-7.46,.04-14.92,.06-22.37,0-.23-.04-.46,.01-.68,.05-.19,.2-.35,.3-.53,.14,.18,.38,.34,.41,.53,.05,.41-.01,.83-.02,1.25-.09,7.27-.18,14.53-.28,21.8,0,.51-.1,1.01-.15,1.52h-.24Z"/><path class="cls-1" d="M179.29,168.64c0-.6,0-1.2,0-1.8-.02-6.73-.04-13.47-.07-20.2,0-1.13-.14-2.26-.13-3.39,0-.29,.3-.57,.46-.86,.17,.25,.48,.51,.48,.76-.09,7.82-.2,15.65-.32,23.47-.01,.67-.08,1.34-.12,2.02h-.3Z"/><path class="cls-1" d="M271.82,35.81c.2-.36,.34-.78,.61-1.09,2.02-2.29,4.06-4.57,6.14-6.81,.25-.27,.76-.28,1.15-.41-.05,.43,.05,1.02-.19,1.27-2.19,2.29-4.44,4.53-6.69,6.76-.21,.21-.52,.33-.79,.49l-.23-.21Z"/><path class="cls-1" d="M195.99,68.55v14.75l-.44,.07c-.11-.53-.33-1.06-.32-1.59,.01-3.33,.08-6.65,.12-9.98,0-.76-.04-1.51,0-2.27,.02-.35,.18-.7,.28-1.05l.38,.06Z"/><path class="cls-1" d="M183.26,134.35c-.29-.34-.79-.7-.95-1.18-.3-.91,.71-3.07,1.53-3.62,.77-.51,1.62-.2,1.89,.68,.3,.96-.66,3.39-1.53,3.84-.2,.1-.43,.13-.94,.29Z"/><path class="cls-1" d="M202.06,86.54c.08-.89,.74-1.35,1.8-1.25,1.54,.14,2.54,1.02,2.44,2.14-.08,.91-.94,1.56-1.94,1.47-1.3-.13-2.39-1.25-2.3-2.35Z"/><path class="cls-1" d="M191.76,75.61c-.02,.89-.93,1.54-2.06,1.49-1.04-.04-1.73-.81-1.7-1.87,.02-.95,.84-1.61,1.97-1.58,1,.02,1.82,.92,1.8,1.96Z"/><path class="cls-1" d="M176.4,100.37c-.02,1.14-.7,1.93-1.64,1.93-.96,0-1.56-.87-1.55-2.24,0-1.06,.59-1.71,1.54-1.71,1,0,1.67,.82,1.65,2.02Z"/><path class="cls-1" d="M189.61,138.42v23.02l-.41,.04c-.09-.73-.25-1.45-.24-2.18,.1-6.2,.23-12.4,.34-18.6,0-.52-.11-1.05-.13-1.57,0-.25,.07-.51,.12-.77l.33,.06Z"/><path class="cls-1" d="M188.68,63.66v-19.65h.26v19.64h-.26Z"/><path class="cls-1" d="M259.6,81.61c-.12,.31-.18,.67-.36,.93-1.24,1.71-2.49,3.41-3.8,5.06-.18,.23-.75,.14-1.15,.2,.02-.37-.11-.87,.08-1.09,1.24-1.47,2.54-2.89,3.83-4.31,.33-.36,.73-.67,1.1-1l.3,.21Z"/><path class="cls-1" d="M189.17,173.7c-.16,.34-.22,.69-.42,.86-.78,.64-1.58,1.25-2.42,1.8-.21,.14-.67,.1-.89-.04-.13-.09-.14-.62,0-.81,.61-.84,1.26-1.68,1.99-2.42,.22-.22,.78-.22,1.14-.13,.25,.07,.4,.46,.62,.74Z"/><path class="cls-1" d="M216.63,102.45c.8,.02,1.61,.12,1.61,1.15,0,.81-.7,1.16-1.35,.96-.64-.19-1.56-.64-1.67-1.13-.17-.77,.65-1.04,1.42-.98Z"/><path class="cls-1" d="M137.44,145.32c-.28,12.57-.57,25.13-.85,37.7-.02,.71-.15,1.41-.95,1.42-.86,0-1.03-.71-1.02-1.47,.14-15.18,.21-30.36,.44-45.54,.14-9.46,.53-18.92,.82-28.38,.02-.68,0-1.38,.15-2.03,.1-.44,.48-.82,.74-1.23,.25,.42,.65,.82,.73,1.27,.14,.81,.11,1.66,.1,2.49-.04,10.45-.08,20.9-.12,31.35,0,1.48,0,2.95,0,4.43h-.03Z"/><path class="cls-1" d="M89.59,91.83c6.44,0,12.88-.02,19.31,.01,1.81,.01,3.63,.15,5.44,.35,.46,.05,.88,.54,1.31,.83-.42,.3-.81,.75-1.28,.85-.92,.2-1.87,.29-2.82,.29-13.41,.09-26.81,.15-40.22,.23-1.93,.01-3.86,.06-5.79,.09-1.13,.02-1.89-.58-1.9-1.5-.01-.92,.74-1.54,1.86-1.54,8.03,0,16.05,0,24.08,0v.38Z"/><path class="cls-1" d="M129.52,12.12c-.66,.11-1.32,.31-1.98,.31-4.84-.02-9.69-.09-14.53-.13-22.9-.16-45.8-.31-68.7-.44-1.74-.01-3.47,.15-5.21,.12-.42,0-.83-.41-1.25-.64,.38-.26,.77-.74,1.15-.74,13.01,.07,26.02,.19,39.04,.29,16.47,.12,32.93,.22,49.4,.35,.69,0,1.38,.17,2.07,.26v.61Z"/><path class="cls-1" d="M111.38,20.42c5.18,0,10.37-.01,15.55,.01,.71,0,1.46,.07,2.11,.3,.37,.13,.85,.71,.81,1.02-.05,.41-.51,.98-.9,1.09-.9,.25-1.86,.35-2.8,.36-8.67,.09-17.33,.15-26,.22-1.7,.01-3.41,.04-5.11,.05-.83,0-1.66-.07-1.78-1.13-.09-.79,.59-1.27,1.78-1.29,5.45-.13,10.9-.25,16.35-.37v-.25Z"/><path class="cls-1" d="M116.83,133.51c0-5.98,0-11.96,0-17.95,0-.72-.1-1.43-.14-2.15-.05-.82,.33-1.35,1.16-1.36,.79,0,1.11,.54,1.1,1.29-.15,9.76-.3,19.53-.45,29.29-.05,3.07-.07,6.13-.17,9.2-.02,.78-.24,1.56-.43,2.33-.05,.21-.38,.52-.53,.49-.24-.05-.57-.3-.62-.52-.18-.84-.37-1.71-.37-2.56-.03-6.02-.02-12.04-.02-18.06h.48Z"/><path class="cls-1" d="M87.09,26.63c-2.35-.19-3.96-.67-5.2-1.98-1.96-2.08-1.44-5.04,1.15-6.22,2.99-1.36,5.93-.23,7.81,2.07,1.3,1.58,.94,3.74-.79,4.87-1.04,.68-2.31,1-2.98,1.27Z"/><path class="cls-1" d="M111.46,83.06c-.59,.1-1.18,.29-1.77,.3-6.97,.11-13.93,.17-20.9,.3-9.23,.18-18.47,.42-27.7,.65-.86,.02-1.62-.15-1.66-1.1-.04-.91,.69-1.12,1.51-1.11,9.27,.1,18.55,.23,27.82,.27,6.81,.03,13.63-.07,20.44-.09,.75,0,1.5,.18,2.25,.27v.5Z"/><path class="cls-1" d="M136.87,25.52c.12,.44,.31,.89,.33,1.33,.07,1.55,.1,3.1,.1,4.65-.12,20.14-.24,40.27-.37,60.41,0,.49,.14,1.01,.03,1.47-.09,.39-.4,.97-.7,1.03-.71,.14-.83-.45-.81-1.04,.06-1.63,.15-3.25,.18-4.88,.2-14,.4-28.01,.56-42.01,.06-5.79-.02-11.58,0-17.37,0-1.19,.21-2.38,.32-3.57l.35-.02Z"/><path class="cls-1" d="M128.84,81.65c.08,.71,.23,1.43,.22,2.14-.09,8.25-.19,16.5-.32,24.75-.07,4.73-.21,9.46-.3,14.19-.01,.6,.12,1.2,.18,1.8,.07,.75-.09,1.47-.95,1.53-.92,.06-1.04-.66-1.02-1.42,.38-13.2,.74-26.41,1.14-39.61,.03-1.13,.26-2.26,.4-3.39h.66Z"/><path class="cls-1" d="M127.87,154.14c0,4.69,0,9.38,0,14.08,0,.69-.18,1.36-1.04,1.32-.85-.03-.97-.68-.96-1.39,.22-8.86,.42-17.71,.66-26.57,.03-.94,.21-1.87,.39-2.79,.04-.21,.4-.36,.61-.54,.16,.19,.42,.37,.46,.58,.12,.71,.22,1.42,.22,2.14,.02,4.39,0,8.78,0,13.18h-.35Z"/><path class="cls-1" d="M139.26,17.93c-.13,1.71-.55,2.7-1.45,2.89-1.39,.3-2.2-.58-2.87-1.59-1.47-2.21-2.55-4.56-2.44-7.3,.05-1.3,.75-2.3,1.82-2.41,.53-.05,1.37,.13,1.6,.49,.99,1.59,1.89,3.25,2.65,4.96,.41,.91,.47,1.97,.69,2.96Z"/><path class="cls-1" d="M59.43,22.13c-6.17,0-12.34,.01-18.51-.03-.39,0-.78-.45-1.17-.68,.38-.2,.76-.57,1.15-.57,11.66-.11,23.31-.18,34.97-.24,.98,0,1.97,.04,2.94,.14,.27,.03,.5,.35,.76,.53-.24,.19-.47,.5-.73,.54-.74,.12-1.51,.16-2.26,.16-5.72,.01-11.43,0-17.15,0v.15Z"/><path class="cls-1" d="M122.42,97.73c-.15,4.2-.3,8.09-.44,11.98-.01,.34,.01,.72-.13,1-.14,.29-.49,.68-.72,.66-.26-.02-.55-.41-.7-.71-.13-.25-.1-.59-.09-.89,.12-7.03,.24-14.06,.37-21.08,0-.38,0-.78,.15-1.12,.15-.34,.47-.6,.71-.89,.24,.31,.65,.6,.69,.93,.13,1.16,.16,2.34,.18,3.51,.02,2.31,0,4.61,0,6.61Z"/><path class="cls-1" d="M127.38,29.11c.11,.63,.31,1.25,.32,1.88,.13,8.1,.24,16.19,.34,24.29,.05,4.09,.08,8.17,.14,12.26,0,.6,.26,1.2,.22,1.79-.03,.34-.42,.65-.65,.97-.26-.29-.75-.58-.76-.88-.09-7.56-.13-15.12-.18-22.69-.04-4.92-.1-9.84-.12-14.76,0-.95,.12-1.89,.19-2.84l.5-.02Z"/><path class="cls-1" d="M30.85,25.93c-2.29-.03-4.82-2.22-5.17-4.52-.15-.95,.2-1.72,1.04-2.21,.85-.49,1.75-.56,2.54,.09,.78,.64,1.57,1.3,2.21,2.08,.54,.65,1.01,1.43,1.26,2.22,.44,1.41-.4,2.35-1.89,2.33Z"/><path class="cls-1" d="M106.64,104.98c-2.3,0-4.61,0-6.91,0-.37,0-.81,.04-1.11-.13-.32-.18-.65-.56-.7-.89-.03-.21,.42-.57,.73-.72,.33-.15,.74-.18,1.11-.18,4.68,.07,9.37,.15,14.05,.27,.68,.02,1.84-.19,1.8,.84-.04,.99-1.18,.86-1.93,.87-2.34,.04-4.69,.01-7.03,.01v-.08Z"/><path class="cls-1" d="M119.86,32.19c.09,.52,.27,1.04,.26,1.56-.06,3.37-.16,6.73-.26,10.09-.18,5.59-.38,11.19-.56,16.78-.02,.72,.06,1.44,0,2.15-.02,.28-.26,.54-.41,.8-.16-.28-.46-.57-.46-.85,.01-2.5,.08-4.99,.13-7.49,.16-7.22,.32-14.45,.5-21.67,.01-.47,.21-.94,.32-1.41l.47,.02Z"/><path class="cls-1" d="M87.74,87.48c4.69,0,9.39,0,14.08,0,.34,0,.69-.02,1.01,.07,.16,.04,.32,.27,.38,.45,.02,.07-.21,.3-.36,.33-.29,.06-.6,.05-.9,.05-9.05-.04-18.09-.08-27.14-.12-.57,0-1.14,.09-1.7,.04-.3-.03-.59-.27-.88-.42,.28-.17,.57-.48,.85-.48,4.88-.03,9.77-.02,14.65-.02v.1Z"/><path class="cls-1" d="M85.09,103.29c1.89,0,3.78-.04,5.66,.03,.49,.02,.97,.39,1.45,.59-.47,.3-.91,.82-1.4,.86-3.16,.31-6.32,.51-9.49,.75-.75,.06-1.51,.1-2.26,.12-.66,.02-1.37-.16-1.25-.92,.07-.42,.72-.98,1.18-1.05,1.22-.18,2.48-.13,3.73-.19,.79-.04,1.58-.1,2.37-.15v-.04Z"/><path class="cls-1" d="M139.56,192.29c-.56-.37-1.22-.65-1.68-1.12-2.45-2.52-4.86-5.09-7.28-7.64-.6-.63-1.26-1.22-1.74-1.94-.26-.38-.19-.98-.26-1.48,.5,.13,1.16,.09,1.46,.41,2.5,2.63,4.95,5.31,7.37,8.02,.91,1.02,1.71,2.16,2.55,3.24l-.43,.51Z"/><path class="cls-1" d="M68.75,98.78c.45,.24,.85,.35,1.1,.6,2.05,2.07,4.09,4.14,6.07,6.28,.32,.34,.31,.99,.45,1.5-.51-.08-1.18,0-1.52-.28-2.29-1.92-4.53-3.9-6.71-5.93-.3-.28-.35-.98-.27-1.44,.05-.28,.56-.48,.88-.73Z"/><path class="cls-1" d="M118.14,169.06c-.33-.19-.71-.33-.98-.58-1.71-1.6-3.41-3.2-5.05-4.87-.28-.28-.27-.89-.31-1.35-.03-.41,.09-.82,.09-1.23,0-1.96,.01-3.93-.03-5.89-.02-.78-.18-1.56-.21-2.34-.01-.29,.13-.63,.3-.88,.08-.11,.48-.15,.6-.05,.21,.17,.44,.47,.44,.71-.03,2.33,.01,4.67-.2,6.98-.2,2.12,.31,3.76,2.04,5.11,1.12,.87,2,2.05,2.96,3.11,.26,.29,.43,.65,.63,.98l-.29,.31Z"/><path class="cls-1" d="M130.97,170.09c0-.67,0-1.35,0-2.02,.06-7.46,.13-14.91,.19-22.37,0-.57-.11-1.14-.05-1.7,.03-.29,.32-.56,.5-.84,.14,.27,.42,.54,.41,.8-.19,7.98-.4,15.96-.61,23.94-.02,.74-.07,1.48-.11,2.21l-.33-.03Z"/><path class="cls-1" d="M16.24,7.81c.32,.2,.69,.35,.95,.62,2.78,2.88,5.56,5.77,8.31,8.68,.2,.21,.18,.64,.26,.97-.35-.09-.82-.05-1.03-.27-2.73-2.88-5.43-5.78-8.12-8.7-.27-.29-.42-.69-.63-1.04l.27-.25Z"/><path class="cls-1" d="M68.49,85.98c1.06,0,1.67,.59,1.66,1.58-.01,1.22-1.24,2.27-2.66,2.27-1.12,0-1.76-.61-1.74-1.64,.02-1.11,1.39-2.22,2.74-2.21Z"/><path class="cls-1" d="M40.75,35.63c-.45-.32-.82-.5-1.08-.78-2.11-2.16-4.21-4.34-6.3-6.52-.21-.21-.39-.47-.5-.75-.07-.18-.04-.51,.08-.61,.17-.14,.47-.13,.72-.17,.06,0,.14,.06,.19,.11,2.32,2.73,4.63,5.46,6.94,8.19,.03,.04,0,.14-.04,.52Z"/><path class="cls-1" d="M116.39,83.97c-.71-1.02-.62-14.12,.03-14.94,.53,.71,.54,13.44-.03,14.94Z"/><path class="cls-1" d="M129.29,133.63c-.44,.48-.74,1.08-1.21,1.26-.36,.14-1.17-.09-1.36-.41-.55-.92-1-1.94-1.25-2.98-.09-.37,.39-1.14,.78-1.3,.39-.16,1.24,.04,1.47,.37,.61,.88,1,1.91,1.56,3.06Z"/><path class="cls-1" d="M132.6,58.9c.68,.47,.46,23.74,0,25.34v-25.34Z"/><path class="cls-1" d="M107.34,89.29c-1.09-.02-1.67-.55-1.67-1.55,0-1.15,1.17-2.08,2.63-2.08,.9,0,1.64,.72,1.6,1.54-.06,1.11-1.28,2.1-2.56,2.08Z"/><path class="cls-1" d="M121.86,138.97v23.04l-.48,.05c-.07-.72-.22-1.45-.21-2.17,.11-6.04,.25-12.09,.37-18.13,.01-.64-.06-1.28-.07-1.92,0-.3,.07-.6,.11-.89l.27,.03Z"/><path class="cls-1" d="M122.32,77.72c-1.23,0-1.96-.57-1.95-1.54,0-1.07,.71-1.82,1.73-1.84,1.23-.02,2.03,.62,2.01,1.63-.01,1.06-.71,1.75-1.79,1.75Z"/><path class="cls-1" d="M138.5,101.03c-.02,1.36-.66,2.19-1.65,2.14-.9-.04-1.62-.96-1.59-2.02,.03-1.03,.83-1.95,1.69-1.95,.96,0,1.56,.71,1.54,1.83Z"/><path class="cls-1" d="M123.7,44.45v19.57h-.48c-.21-6.51,.42-13.02,.48-19.57Z"/><path class="cls-1" d="M52.66,81.07c.32,.26,.68,.49,.95,.8,1.35,1.52,2.69,3.05,3.97,4.62,.18,.22,.02,.71,.02,1.08-.37-.04-.93,.05-1.09-.16-1.34-1.76-2.61-3.58-3.89-5.39-.14-.19-.17-.46-.24-.7l.27-.25Z"/><path class="cls-1" d="M122.74,173.48c.17,.1,.53,.2,.73,.44,.63,.74,1.22,1.52,1.76,2.33,.13,.19,.11,.59,0,.8-.07,.13-.54,.2-.69,.09-.94-.67-1.94-1.29-2.72-2.12-.57-.61-.01-1.55,.92-1.54Z"/><path class="cls-1" d="M95.33,102.53c.39,.39,.94,.71,1.14,1.18,.2,.49-.91,1.23-1.74,1.22-.73-.02-1.3-.36-1.28-1.12,.03-1.06,.9-1.01,1.88-1.28Z"/></g></g></svg>